PathFileType	4	(X/Y/Z)	E:\Qualisys_Data\Carbon_Farble_Plate\Data\Amateur_Runner\S2\T2\S2T2V22_c3d.trc
DataRate	CameraRate	NumFrames	NumMarkers	Units	OrigDataRate	OrigDataStartFrame	OrigNumFrames
200.000000	200.000000	4	39	mm	200.000000	149	298
Frame#	Time	LSHO			RSHO			LICST			RICST			LASIS			LHEEL			RASIS			LTROC			RTROC			SACR			LTH1			LSK4			LTH2			LTH3			RHM5			LSK2			LTH4			RTH1			LTOE			RTH2			RTH3			RTH4			LLEP			RLEP			LSK1			LSK3			RSK1			LHM5			RSK2			LFT1			RSK3			RSK4			LLME			RLME			RTOE			RHEEL			RFT1			RFT2			LFT2			
		X1	Y1	Z1	X2	Y2	Z2	X3	Y3	Z3	X4	Y4	Z4	X5	Y5	Z5	X6	Y6	Z6	X7	Y7	Z7	X8	Y8	Z8	X9	Y9	Z9	X10	Y10	Z10	X11	Y11	Z11	X12	Y12	Z12	X13	Y13	Z13	X14	Y14	Z14	X15	Y15	Z15	X16	Y16	Z16	X17	Y17	Z17	X18	Y18	Z18	X19	Y19	Z19	X20	Y20	Z20	X21	Y21	Z21	X22	Y22	Z22	X23	Y23	Z23	X24	Y24	Z24	X25	Y25	Z25	X26	Y26	Z26	X27	Y27	Z27	X28	Y28	Z28	X29	Y29	Z29	X30	Y30	Z30	X31	Y31	Z31	X32	Y32	Z32	X33	Y33	Z33	X34	Y34	Z34	X35	Y35	Z35	X36	Y36	Z36	X37	Y37	Z37	X38	Y38	Z38	X39	Y39	Z39	

150	0.745	142.0697937011719	1476.26953125	-438.0292053222656	94.66558074951172	1446.849853515625	-143.5798187255859	63.37946701049805	1008.497497558594	-456.040771484375	71.81424713134766	992.7839965820312	-158.1570739746094	111.3677597045898	952.3279418945312	-444.4098205566406	-462.6788940429688	560.0506591796875	-311.0586547851562	126.1697540283203	944.9510498046876	-189.7984924316406	-38.42328643798828	909.0039672851562	-461.4298400878906	-6.984533309936523	888.6614379882812	-147.5447845458984	-27.30182456970215	1047.042724609375	-308.6085205078125	3.71866250038147	648.2647705078125	-473.9701843261719	-324.6538696289062	559.0390014648438	-428.0243530273438	-75.20124816894531	675.1417846679688	-471.1814880371094	-29.90040397644043	551.2008056640625	-463.8018798828125	408.3885498046875	124.1761474609375	-172.711181640625	-228.1905670166016	561.6688842773438	-455.1641845703125	-108.5814895629883	581.5045166015625	-449.4826354980469	208.8962707519531	658.5447998046875	-144.7118682861328	-599.5341186523438	357.6476745605469	-373.4759521484375	136.5586700439453	624.7282104492188	-136.4017486572266	244.2223510742188	569.9548950195312	-181.5820922851562	169.2952270507812	538.8517456054688	-173.3734436035156	-101.0790939331055	526.3187866210938	-459.3788146972656	215.4787902832031	523.8516845703125	-172.6783142089844	-227.0053100585938	482.0383911132812	-454.1387023925781	-325.4001159667969	481.4844970703125	-434.2432861328125	272.8077087402344	414.0590209960938	-173.2904357910156	-598.4384155273438	430.2304077148438	-408.7571716308594	195.0065460205078	399.9822387695312	-160.3751525878906	-488.6328735351562	556.1895751953125	-283.4612121582031	289.8622741699219	314.1430053710938	-184.8998565673828	211.6744537353516	303.4928894042969	-174.0138549804688	-493.636962890625	520.8218383789062	-382.9609069824219	288.744873046875	120.7025680541992	-210.6858825683594	467.2662963867188	175.6908874511719	-224.7205657958984	239.2635498046875	82.0520248413086	-272.6023254394531	270.231689453125	65.38410186767578	-300.6213684082031	252.2959594726562	52.07769775390625	-249.1708526611328	-498.4866943359375	580.321533203125	-332.238037109375
151	0.75	163.198486328125	1472.204711914062	-437.6930847167969	116.6811294555664	1441.260009765625	-141.9027557373047	85.14176177978516	1004.463806152344	-455.7808837890625	91.87683868408205	988.9287719726562	-158.0896911621094	133.0492858886719	948.4974365234376	-443.9393005371094	-430.781982421875	566.5184326171875	-310.3210754394531	146.5615997314453	941.21875	-189.1726837158203	-15.92488956451416	904.3162841796876	-462.8658142089844	12.62126064300537	884.77880859375	-147.4939727783203	-6.322895050048828	1042.974243164062	-308.6595764160156	30.03478622436523	643.1283569335938	-474.900634765625	-294.03369140625	559.7840576171875	-428.4876403808594	-49.23836898803711	668.6056518554688	-471.848388671875	-2.143138885498047	545.4984130859375	-465.2521667480469	420.4325561523438	116.2537689208984	-174.9706115722656	-197.5435638427734	558.8300170898438	-456.4314575195312	-81.12371063232422	574.202392578125	-450.5405883789062	230.0168762207031	655.3187866210938	-145.3829956054688	-573.1726684570312	368.2122192382812	-373.4349060058594	157.1233367919922	622.0218505859375	-139.1217803955078	265.0160827636719	566.6886596679688	-183.7456359863281	190.2775268554688	536.6676635742188	-173.9762878417969	-72.5781021118164	520.0664672851562	-460.8035583496094	236.3096313476562	520.8239135742188	-174.0104064941406	-199.3421630859375	479.1200866699219	-454.7088623046875	-297.3465881347656	481.859130859375	-434.1360473632812	290.8531188964844	408.4761962890625	-174.53271484375	-570.3374633789062	440.6236572265625	-407.9854431152344	212.9384918212891	395.8379821777344	-161.8448944091797	-456.2984619140625	563.0211791992188	-282.4639282226562	305.8017578125	307.974853515625	-186.6246490478516	227.2752075195312	298.9795532226562	-175.7778015136719	-462.791015625	529.41015625	-382.9616394042969	300.9085083007812	115.017463684082	-212.8113555908203	480.1840515136719	167.5247344970703	-226.2122192382812	251.2733459472656	77.36338806152344	-274.9401245117188	281.9770202636719	60.64039611816406	-303.4908447265625	263.5043640136719	47.14111709594727	-251.7592315673828	-466.1911926269531	587.5000610351562	-330.7333374023438
152	0.755	184.4344024658203	1467.566040039062	-437.6275024414062	138.859619140625	1435.362060546875	-140.6414489746094	106.9813537597656	1000.381713867188	-455.8106384277344	111.2122039794922	984.9637451171876	-158.5742645263672	154.4747467041016	944.4520263671876	-443.3755798339844	-398.385498046875	572.1143798828125	-308.8496704101562	166.7502288818359	937.3165893554688	-188.2073516845703	6.365195274353027	899.1585693359375	-464.0308837890625	33.73220062255859	880.2008666992188	-146.5759887695312	14.5627326965332	1038.4111328125	-308.8068237304688	55.99128723144531	637.9230346679688	-475.8270874023438	-262.8528137207031	559.75634765625	-429.2399597167969	-23.79752159118652	661.8209228515625	-472.7234802246094	25.86687088012695	539.7158203125	-467.0260314941406	431.6160278320312	108.6629333496094	-177.7176818847656	-166.2452697753906	555.83740234375	-457.4041137695312	-53.55080032348633	566.779296875	-451.3821716308594	251.1665344238281	652.4493408203125	-147.3062438964844	-545.4928588867188	377.8915405273438	-373.6603393554688	177.8870544433594	620.3837890625	-142.7020263671875	286.0481262207031	563.7341918945312	-185.9478149414062	211.2059478759766	533.8836059570312	-175.6415405273438	-43.91981887817383	513.0346069335938	-462.4176940917969	257.064453125	518.0318603515625	-175.2242736816406	-170.6326904296875	476.2236938476562	-455.9472045898438	-268.79296875	482.3164978027344	-434.6026611328125	308.2793579101562	402.6502990722656	-175.7085571289062	-540.986328125	450.6401062011719	-407.9171447753906	229.7903900146484	391.6147766113281	-163.4158935546875	-424.1184997558594	568.9974365234375	-281.5226745605469	320.5937194824219	301.7981567382812	-188.5528869628906	242.2995758056641	293.869384765625	-177.9690551757812	-431.4669494628906	536.10986328125	-382.3110961914062	312.3572998046875	109.1996917724609	-214.8878479003906	492.3331604003906	158.5598754882812	-228.0950317382812	262.1671142578125	72.73932647705078	-277.2177734375	291.8115844726562	55.84081268310547	-305.7234497070312	273.1481323242188	43.07538604736328	-254.5384674072266	-433.1326599121094	594.135009765625	-329.754638671875
153	0.76	205.2717742919922	1463.13330078125	-437.3531188964844	160.9586944580078	1429.011596679688	-139.5811157226562	128.6114349365234	995.8528442382812	-455.3804931640625	130.8796844482422	980.8494262695312	-158.0856170654297	176.2242431640625	939.9063720703124	-442.8499450683594	-365.3978271484375	577.1709594726562	-308.3929748535156	187.0947570800781	933.3410034179688	-187.0915374755859	28.85069847106934	893.0026245117188	-465.1985473632812	54.73720932006836	875.4783935546875	-146.2667541503906	34.24115371704102	1033.721923828125	-309.6816711425781	82.19440460205078	632.700927734375	-476.6939086914062	-230.8554229736328	560.1883544921875	-430.2886657714844	2.0434410572052	655.163330078125	-472.9690856933594	53.79587936401367	533.8988037109375	-468.9210815429688	441.6065673828125	99.87104034423828	-179.8811950683594	-134.3875732421875	552.4424438476562	-458.4628295898438	-25.92331314086914	559.2032470703125	-452.3737487792969	272.3428649902344	649.7507934570312	-149.0753021240234	-517.0292358398438	386.0907592773438	-373.957763671875	198.6083374023438	618.2627563476562	-145.5858306884766	306.5653991699219	561.0512084960938	-187.88232421875	231.9754180908203	531.427490234375	-176.2225646972656	-14.52794075012207	506.2985534667969	-464.8645935058594	277.1293640136719	514.3012084960938	-176.7918701171875	-141.3433074951172	473.2497863769531	-456.8450012207031	-239.2888793945312	482.508056640625	-435.0540161132812	325.2341918945312	396.3545532226562	-176.8165435791016	-510.5909729003906	459.6064758300781	-408.0213317871094	246.5600128173828	387.0301208496094	-165.4374084472656	-391.2582397460938	574.6580200195312	-280.5574951171875	335.2742614746094	295.4123840332031	-190.0123901367188	256.4064025878906	289.2751770019531	-179.5798034667969	-399.4129028320312	542.1014404296875	-381.414794921875	322.7995300292969	103.7123565673828	-216.6013946533203	503.6596374511719	147.9563293457031	-231.3781127929688	272.0514526367188	72.23059844970703	-278.908935546875	299.4080200195312	53.34969711303711	-307.5129089355469	280.1788940429688	44.13640975952148	-255.7540283203125	-399.8304748535156	600.402587890625	-328.8287353515625
